<svg id="visual" viewBox="0 0 1920 1080" xmlns="http://www.w3.org/2000/svg" xmlns:xlink="http://www.w3.org/1999/xlink" version="1.1"><path d="M0 217L64 229.7C128 242.3 256 267.7 384 255C512 242.3 640 191.7 768 195.2C896 198.7 1024 256.3 1152 310.3C1280 364.3 1408 414.7 1536 411.2C1664 407.7 1792 350.3 1856 321.7L1920 293L1920 0L1856 0C1792 0 1664 0 1536 0C1408 0 1280 0 1152 0C1024 0 896 0 768 0C640 0 512 0 384 0C256 0 128 0 64 0L0 0Z" fill="#f7f3f1"></path><path d="M0 325L64 337.7C128 350.3 256 375.7 384 390C512 404.3 640 407.7 768 434.7C896 461.7 1024 512.3 1152 532.2C1280 552 1408 541 1536 528.3C1664 515.7 1792 501.3 1856 494.2L1920 487L1920 291L1856 319.7C1792 348.3 1664 405.7 1536 409.2C1408 412.7 1280 362.3 1152 308.3C1024 254.3 896 196.7 768 193.2C640 189.7 512 240.3 384 253C256 265.7 128 240.3 64 227.7L0 215Z" fill="#f6d9cd"></path><path d="M0 725L64 701.5C128 678 256 631 384 636.3C512 641.7 640 699.3 768 712C896 724.7 1024 692.3 1152 690.5C1280 688.7 1408 717.3 1536 722.7C1664 728 1792 710 1856 701L1920 692L1920 485L1856 492.2C1792 499.3 1664 513.7 1536 526.3C1408 539 1280 550 1152 530.2C1024 510.3 896 459.7 768 432.7C640 405.7 512 402.3 384 388C256 373.7 128 348.3 64 335.7L0 323Z" fill="#f3beae"></path><path d="M0 779L64 770C128 761 256 743 384 762.7C512 782.3 640 839.7 768 854C896 868.3 1024 839.7 1152 832.5C1280 825.3 1408 839.7 1536 834.3C1664 829 1792 804 1856 791.5L1920 779L1920 690L1856 699C1792 708 1664 726 1536 720.7C1408 715.3 1280 686.7 1152 688.5C1024 690.3 896 722.7 768 710C640 697.3 512 639.7 384 634.3C256 629 128 676 64 699.5L0 723Z" fill="#f0a293"></path><path d="M0 962L64 951.2C128 940.3 256 918.7 384 915.2C512 911.7 640 926.3 768 935.3C896 944.3 1024 947.7 1152 945.8C1280 944 1408 937 1536 922.7C1664 908.3 1792 886.7 1856 875.8L1920 865L1920 777L1856 789.5C1792 802 1664 827 1536 832.3C1408 837.7 1280 823.3 1152 830.5C1024 837.7 896 866.3 768 852C640 837.7 512 780.3 384 760.7C256 741 128 759 64 768L0 777Z" fill="#eb847e"></path><path d="M0 1081L64 1081C128 1081 256 1081 384 1081C512 1081 640 1081 768 1081C896 1081 1024 1081 1152 1081C1280 1081 1408 1081 1536 1081C1664 1081 1792 1081 1856 1081L1920 1081L1920 863L1856 873.8C1792 884.7 1664 906.3 1536 920.7C1408 935 1280 942 1152 943.8C1024 945.7 896 942.3 768 933.3C640 924.3 512 909.7 384 913.2C256 916.7 128 938.3 64 949.2L0 960Z" fill="#e5646e"></path></svg>